<svg xmlns="http://www.w3.org/2000/svg" viewBox="0 0 64 64" id="Plane">
  <path fill="#d591fe" d="M54.7041,42.07129c-2.12634-7.17938-12.64471-6.31928-13.64258,1.06836-15.07757-.68256-9.02844,22.25427,3.72461,14.33008a6.60142,6.60142,0,0,0,6.91211-.94629C62.59973,60.52484,66.31287,42.74219,54.7041,42.07129ZM54.5,55.06836c-1.29535.29394-2.6214-1.29865-3.72559-.42224-1.87878,2.5354-4.63684.584-6.77642.88409-10.91071,6.91919-14.68958-12.525-1.36676-10.37512.24072-6.4671,8.41815-8.82031,10.2962-1.89716a.994.994,0,0,0,1.07745.83582C61.59259,43.71,62.10028,54.75592,54.5,55.06836Z" class="color4d4d4d svgShape"/>
  <path fill="#d591fe" d="M33.81946,37.23047h5.79089a3.93824,3.93824,0,0,0,1.42536-7.59259l2.213-2.32782c5.66382-1.019,13.88055.89587,18.45788-2.98181.05347-9.0033-12.61645-13.81952-20.39849-10.99805-.87781-2.87463-4.53571-2.60034-6.93134-2.5304-.875-.62438-5.109-6.1452-6.33667-5.86993-1.64221.03748-5.75928-.59808-4.98437,2.32111l2.86236,9.07873L15.22852,18.41309c-1.21-.652-7.98761-8.32575-9.59369-7.46332-1.7135.24627-4.64008,1.1673-3.35645,3.45794L7.13409,22.648,3.14648,29.82666c-1.32818,2.357,2.7334,4.3255,4.36817,2.77136L13.99384,26.119c3.59259.44183,7.29583.77514,11.03595,1l-2.78687,8.8211C18.18341,29.754,8.40332,32.7326,8.501,40.165c-13.79608,2.38177-2.56476,21.572,6.2832,10.76367,6.35962,7.58081,18.3811.248,14.47113-8.89111Zm7.48157-4.8233c-.57582.06525-2.34844-.02625-1.67953.9754a4.4023,4.4023,0,0,0,1.88552.2713,1.79441,1.79441,0,0,1-.27106.68262c-.1197-.25844-.50526-.29751-.76145-.30089-.25676.04224-.56738-.04009-.777.1432a.38468.38468,0,0,0,.26931.65017,2.48145,2.48145,0,0,0,.84862-.00933c-.98022.77893-4.11414.27612-5.0957.41083l3.67871-3.87061A1.901,1.901,0,0,1,41.301,32.40717ZM37.65039,12.7998a1.93954,1.93954,0,0,1,1.64941.91944l-1.81365.35437L36.27631,12.7998Zm-9.707-5.86962,7.21747,7.59808-7.26636,1.41626-.64758-2.05341c.83024-.0267,3.524-.007,2.687-1.42482-.87025-.64055-2.14738-.08925-3.09751.12282l-.432-1.36987c.70889-.03781,1.5994.1474,2.14265-.41487a.6642.6642,0,0,0-.1646-1.03549c-.738-.40731-1.64958-.07784-2.447-.03664l-.88366-2.80206ZM24.847,34.64429c1.38467-.10252,3.00772.04784,4.20605-.73853.8909-1.78382-3.07226-.59233-3.82061-.421q.252-.76638.49378-1.52881c.76465-.03092,1.66192.21152,2.32557-.25229a.40439.40439,0,0,0,0-.69155c-.59837-.38653-1.33926-.12789-2.0025-.09388q.17633-.57632.33789-1.13153a4.82056,4.82056,0,0,0,1.25391-.172.441.441,0,0,0,.18669-.61234c-.27178-.40038-.80766-.15283-1.192-.09491,1.03333-3.76221,1.281-6.2478-.98517-3.75366-3.33007-.19116-6.63031-.47278-9.85327-.83838a1.00241,1.00241,0,1,0-1.32867-1.49951l-8.34564,8.3623-1.22852-.38086c.10736-.8609,5.59149-8.32745,4.042-9.027l-4.95117-8.3407,2.11524-.54639c.5404.19067,8.438,8.21381,9.02063,7.58868l29.40222-5.73126c6.21106-2.56372,18.28363,7.266,14.65075,9.24768-4.83813.61414-9.66949,1.02484-14.40277,1.24756-.3601-1.82477-2.10016-.49017-2.7044.41516-.00019-.00018-12.47119,13.12543-15.58655,16.41919l-4.08692.03028C22.242,42.05658,23.53674,38.54712,24.847,34.64429Zm-3.42706,17.426c-4.28052.78052-6.26513-6.22766-7.72351-3.48095A4.96861,4.96861,0,0,1,4,47.11023c.36249-6.5285,6.53131-3.61157,6.58722-6.07855-.97687-6.89527,8.5451-9.01251,10.81482-2.42993-2.98956,6.09332,1.85181,6.267,6.31714,5.0213A6.5998,6.5998,0,0,1,21.41992,52.07031Z" class="color4d4d4d svgShape"/>
  <path fill="#d591fe" d="M43.87524 19.21692a63.34715 63.34715 0 016.42944.03853.86044.86044 0 00.693-.99379c-.19873-.8891-1.42657-.82587-2.13867-.87152a11.47515 11.47515 0 00-5.30317.64754 1.04417 1.04417 0 00-.68163.59245C42.78725 19.1616 43.48986 19.22945 43.87524 19.21692zM39.532 19.73663a.87216.87216 0 001.23312-1.23325A.87216.87216 0 0039.532 19.73663zM34.666 20.33783a.70088.70088 0 00.99094-.99106A.70088.70088 0 0034.666 20.33783zM50.6037 42.20612a3.10894 3.10894 0 00-3.26833-.86348c-.316.09712-.37089.63087 0 .69679a3.16874 3.16874 0 012.66211 2.93323l-.01459-.10663c-.0299.73011.49753 1.59808 1.25091.993C52.14977 44.79878 51.45858 43.10487 50.6037 42.20612zM42.14911 47.16833a4.46577 4.46577 0 00-5.8055 2.40144 2.89959 2.89959 0 00-.05388.53161.70028.70028 0 001.18366.49029 11.3079 11.3079 0 011.577-1.82517 4.12127 4.12127 0 012.85471-.713A.4594.4594 0 0042.14911 47.16833zM14.2691 36.19946a4.124 4.124 0 00-2.44347 5.36439c.13879.31359.3153.687.69207.74828 1.37314.04972.17592-1.70345.34973-2.44119a3.88138 3.88138 0 011.79132-3.00224A.40338.40338 0 0014.2691 36.19946zM6.509 44.02008c-1.36132.71016-2.34484 3.01764-1.02491 4.16852.46209.22922.77094-.22187.6799-.66115a2.94184 2.94184 0 01.73562-3.0012C7.18585 44.28253 6.82 43.849 6.509 44.02008zM26.27026 46.345c-.83181-.36966-1.20991.87481-1.797 1.25837a5.62019 5.62019 0 01-4.03045 1.70741.46111.46111 0 00-.122.90159 5.1612 5.1612 0 003.74243-.33333 4.26566 4.26566 0 002.48529-2.85026A.62611.62611 0 0026.27026 46.345z" class="color4d4d4d svgShape"/>
</svg>